<svg width="132" height="36" viewBox="0 0 132 36" fill="none" xmlns="http://www.w3.org/2000/svg">
<g clip-path="url(#clip0_4612_2303)">
<path fill-rule="evenodd" clip-rule="evenodd" d="M12.3927 35.5888V25.3851C12.3927 25.1585 12.5765 24.9739 12.8017 24.9739H22.9277C23.1524 24.9739 23.337 25.1587 23.337 25.3851V35.5888C23.337 35.816 23.1524 36 22.9277 36H12.8017C12.5765 36 12.3927 35.816 12.3927 35.5888ZM0.164513 10.4696C-0.0455176 10.6812 -0.0812814 11.0481 0.409441 11.0481H10.5345C10.7599 11.0481 10.9439 10.862 10.9439 10.636L10.9394 0.371488C10.9394 0.0663931 10.5991 -0.0443331 10.4235 0.132784L0.164513 10.4696ZM35.5445 25.5889C35.8093 25.3212 35.7533 24.9963 35.3206 24.9963H25.1943C24.9698 24.9963 24.786 25.1824 24.7852 25.4075L24.7688 35.5551C24.7678 36.0212 25.2021 36.0176 25.4484 35.7696L35.5445 25.5889ZM4.4751e-07 23.1496L0 12.9475C-1.00399e-08 12.7186 0.183587 12.5336 0.408574 12.5336H10.5345C10.7599 12.5336 10.9435 12.7184 10.9435 12.9475V23.1496C10.9435 23.3763 10.7597 23.5616 10.5345 23.5616H0.408574C0.183588 23.5616 4.57452e-07 23.3763 4.4751e-07 23.1496ZM24.7852 23.1371V12.9335C24.7852 12.707 24.9698 12.5216 25.1943 12.5216H35.3206C35.5459 12.5216 35.7293 12.707 35.7293 12.9335V23.1371C35.7293 23.363 35.5459 23.5491 35.3206 23.5491H25.1943C24.9698 23.5493 24.7852 23.3634 24.7852 23.1371ZM24.7852 10.6628V0.46081C24.7852 0.23259 24.9698 0.0487032 25.1943 0.0487032L35.3206 0.0487028C35.5459 0.0487028 35.7293 0.23237 35.7293 0.46081V10.6628C35.7293 10.8887 35.5459 11.075 35.3206 11.075H25.1943C24.9698 11.075 24.7852 10.8887 24.7852 10.6628ZM12.3927 10.6141V0.412107C12.3927 0.184541 12.5765 4.5089e-07 12.8017 4.41079e-07L22.9277 0C23.1524 -9.79121e-09 23.337 0.184541 23.337 0.412107V10.6141C23.337 10.8421 23.1524 11.0271 22.9277 11.0271H12.8017C12.5765 11.0269 12.3927 10.8419 12.3927 10.6141Z" fill="#0166F4"/>
<path d="M41.0798 23.5385V9.16595H46.2307C47.2336 9.16595 48.1127 9.33021 48.8682 9.65872C49.6236 9.97354 50.2142 10.4458 50.6401 11.0754C51.0659 11.7051 51.2787 12.4785 51.2787 13.3956C51.2787 14.3127 51.059 15.0929 50.6195 15.7362C50.1937 16.3659 49.603 16.845 48.8475 17.1735C48.092 17.4883 47.2199 17.6457 46.2307 17.6457H43.4286V23.5385H41.0798ZM43.4286 15.6541H46.169C47.1716 15.6541 47.8723 15.4556 48.2705 15.0587C48.6826 14.648 48.8886 14.0937 48.8886 13.3956C48.8886 12.7112 48.6826 12.1636 48.2705 11.753C47.8723 11.3424 47.1716 11.137 46.169 11.137H43.4286V15.6541ZM52.5727 23.5385V9.16595H54.9009V23.5385H52.5727ZM60.6027 23.7849C59.7511 23.7849 59.0161 23.6069 58.398 23.2511C57.7936 22.8952 57.3267 22.3886 56.997 21.7315C56.6673 21.061 56.5025 20.2739 56.5025 19.3704V13.3545H58.8307V19.0419C58.8307 19.8906 59.03 20.5681 59.4282 21.0746C59.8402 21.5674 60.4447 21.8138 61.2414 21.8138C62.0519 21.8138 62.6837 21.5537 63.1371 21.0335C63.5902 20.5135 63.8169 19.7949 63.8169 18.8777V13.3545H66.1453V23.5385H63.8787L63.8376 22.1422C63.4942 22.6624 63.0341 23.0663 62.457 23.3537C61.8802 23.6411 61.2621 23.7849 60.6027 23.7849ZM71.9438 23.5385C70.8999 23.5385 70.1033 23.2853 69.5537 22.7787C69.0042 22.2723 68.7295 21.4647 68.7295 20.356V15.3051H67.2668V13.3545H68.7295V10.8907H71.0785V13.3545H73.5716V15.3051H71.0785V20.3766C71.0785 20.8418 71.1883 21.1636 71.4082 21.3415C71.6279 21.5058 71.9576 21.5879 72.3971 21.5879H73.5716V23.5385H71.9438ZM78.9139 23.7849C78.0622 23.7849 77.3274 23.6069 76.7093 23.2511C76.1048 22.8952 75.6378 22.3886 75.3081 21.7315C74.9784 21.061 74.8136 20.2739 74.8136 19.3704V13.3545H77.142V19.0419C77.142 19.8906 77.3411 20.5681 77.7394 21.0746C78.1515 21.5674 78.7559 21.8138 79.5525 21.8138C80.363 21.8138 80.9948 21.5537 81.4481 21.0335C81.9015 20.5135 82.1282 19.7949 82.1282 18.8777V13.3545H84.4564V23.5385H82.1899L82.1486 22.1422C81.8052 22.6624 81.3451 23.0663 80.7683 23.3537C80.1913 23.6411 79.5732 23.7849 78.9139 23.7849ZM90.3374 23.7849C89.5545 23.7849 88.8265 23.648 88.1534 23.3743C87.4941 23.0867 86.9515 22.683 86.5257 22.1627C86.1136 21.6427 85.88 21.0335 85.8252 20.3354H88.174C88.2564 20.8145 88.49 21.2046 88.8745 21.5058C89.2729 21.7933 89.7536 21.9369 90.3168 21.9369C90.8251 21.9369 91.2439 21.8275 91.5736 21.6085C91.917 21.3893 92.0887 21.0883 92.0887 20.7049C92.0887 20.3766 91.972 20.1232 91.7386 19.9454C91.505 19.7537 91.2165 19.61 90.8732 19.5142C90.5298 19.4047 90.1727 19.3088 89.8017 19.2267C89.1562 19.0761 88.5517 18.8914 87.9886 18.6723C87.4392 18.4533 86.9927 18.1453 86.6493 17.7484C86.3059 17.3514 86.1342 16.8313 86.1342 16.188C86.1342 15.5446 86.3127 14.9971 86.6698 14.5454C87.0271 14.08 87.5009 13.7241 88.0916 13.4777C88.696 13.2313 89.3689 13.1081 90.1107 13.1081C91.2372 13.1081 92.1711 13.3887 92.9129 13.9499C93.6684 14.5111 94.0874 15.3324 94.1698 16.4138H91.9446C91.8896 15.9484 91.6904 15.5925 91.347 15.3461C91.0175 15.0997 90.5847 14.9766 90.049 14.9766C89.5819 14.9766 89.1905 15.0655 88.8745 15.2435C88.5724 15.4214 88.4213 15.7089 88.4213 16.1058C88.4213 16.3796 88.5311 16.6054 88.7508 16.7834C88.9845 16.9613 89.2729 17.1119 89.6163 17.2351C89.9734 17.3446 90.3237 17.4404 90.6671 17.5225C91.3676 17.6868 91.9927 17.8784 92.5421 18.0974C93.0915 18.3164 93.5243 18.6244 93.8401 19.0214C94.1698 19.4183 94.3415 19.959 94.3552 20.6434C94.3552 21.3005 94.1767 21.8617 93.8196 22.3271C93.4623 22.7925 92.9816 23.1551 92.3773 23.4152C91.7729 23.6617 91.0929 23.7849 90.3374 23.7849Z" fill="#0166F4"/>
<path d="M96.0735 23.5385V9.16595H98.4226L105.49 19.6989V9.16595H107.839V23.5385H105.49L98.4226 13.026V23.5385H96.0735ZM114.48 23.7849C113.449 23.7849 112.55 23.559 111.78 23.1073C111.011 22.6418 110.407 22.0122 109.967 21.2182C109.542 20.4108 109.329 19.4868 109.329 18.4465C109.329 17.3651 109.542 16.4275 109.967 15.6336C110.407 14.8397 111.011 14.2237 111.78 13.7857C112.563 13.334 113.47 13.1081 114.5 13.1081C115.503 13.1081 116.375 13.3271 117.117 13.7652C117.859 14.1895 118.442 14.7781 118.868 15.5309C119.294 16.2838 119.507 17.1393 119.507 18.0974C119.507 18.2891 119.5 18.4602 119.486 18.6107C119.486 18.7613 119.473 18.9256 119.445 19.1035H111.677C111.719 19.6373 111.856 20.1165 112.09 20.5408C112.323 20.9514 112.639 21.273 113.037 21.5058C113.449 21.7385 113.916 21.8548 114.438 21.8548C115.002 21.8548 115.476 21.7315 115.86 21.4853C116.258 21.2388 116.567 20.883 116.787 20.4175H119.239C119.047 21.0335 118.738 21.5947 118.312 22.1012C117.9 22.6076 117.371 23.0182 116.725 23.3331C116.094 23.6342 115.345 23.7849 114.48 23.7849ZM111.698 17.4815H117.117C117.103 16.7286 116.835 16.1332 116.313 15.6952C115.791 15.2572 115.167 15.0381 114.438 15.0381C113.779 15.0381 113.182 15.2366 112.646 15.6336C112.124 16.0305 111.808 16.6465 111.698 17.4815ZM125.68 23.7849C124.678 23.7849 123.778 23.5658 122.981 23.1278C122.185 22.6899 121.553 22.0737 121.086 21.28C120.632 20.4723 120.406 19.5278 120.406 18.4465C120.406 17.3378 120.646 16.3864 121.127 15.5925C121.608 14.7986 122.253 14.1895 123.064 13.7652C123.874 13.3271 124.774 13.1081 125.763 13.1081C126.766 13.1081 127.665 13.3271 128.462 13.7652C129.272 14.1895 129.911 14.7986 130.378 15.5925C130.859 16.3864 131.099 17.3378 131.099 18.4465C131.099 19.4731 130.866 20.3902 130.399 21.1979C129.946 22.0053 129.307 22.6418 128.483 23.1073C127.672 23.559 126.738 23.7849 125.68 23.7849ZM125.701 21.7727C126.292 21.7727 126.807 21.6289 127.246 21.3415C127.7 21.0404 128.057 20.6365 128.318 20.1301C128.579 19.6237 128.709 19.0488 128.709 18.4054C128.709 17.7347 128.579 17.1529 128.318 16.6602C128.057 16.1674 127.7 15.791 127.246 15.5309C126.807 15.2572 126.299 15.1203 125.722 15.1203C125.117 15.1203 124.588 15.264 124.135 15.5514C123.695 15.8389 123.359 16.2359 123.125 16.7423C122.892 17.2351 122.775 17.8031 122.775 18.4465C122.775 19.1446 122.906 19.7468 123.167 20.2534C123.441 20.7461 123.799 21.1225 124.238 21.3826C124.691 21.6427 125.179 21.7727 125.701 21.7727Z" fill="#FA5700"/>
<path d="M78.5585 32.6949C78.1996 32.6949 77.8727 32.6247 77.5781 32.4843C77.2897 32.3373 77.059 32.1266 76.8859 31.8521L76.8474 32.58H75.8671V25.8753H76.8859V28.5573C77.0525 28.3083 77.2768 28.1071 77.5588 27.9538C77.8407 27.7942 78.174 27.7143 78.5585 27.7143C79.0261 27.7143 79.4299 27.8229 79.7695 28.04C80.1155 28.257 80.3815 28.5539 80.5673 28.9307C80.753 29.3076 80.8459 29.7289 80.8459 30.1951C80.8459 30.6611 80.753 31.0858 80.5673 31.4689C80.3815 31.8458 80.1155 32.1458 79.7695 32.3693C79.4299 32.5863 79.0261 32.6949 78.5585 32.6949ZM78.3469 31.8042C78.6416 31.8042 78.8981 31.7372 79.1158 31.6031C79.3338 31.4626 79.5035 31.2709 79.6254 31.0284C79.7471 30.7794 79.808 30.5015 79.808 30.1951C79.808 29.8758 79.7439 29.5979 79.6157 29.3618C79.494 29.1191 79.3241 28.9307 79.1063 28.7966C78.8884 28.6625 78.6353 28.5955 78.3469 28.5955C78.065 28.5955 77.8151 28.6657 77.5972 28.8061C77.3794 28.9402 77.2063 29.1287 77.0783 29.3713C76.9564 29.6076 76.8957 29.8853 76.8957 30.2046C76.8957 30.5112 76.9564 30.7857 77.0783 31.0284C77.2063 31.2709 77.3794 31.4626 77.5972 31.6031C77.8151 31.7372 78.065 31.8042 78.3469 31.8042ZM82.1741 34.6872L83.2313 32.3693L81.2417 27.8292H82.3662L83.7696 31.2965L85.2305 27.8292H86.2974L83.2505 34.6872H82.1741ZM89.5655 32.58L92.0358 25.8753H93.1507L95.621 32.58H94.5348L93.9677 30.9517H91.2092L90.6324 32.58H89.5655ZM91.5072 30.1375H93.6698L92.5836 27.0821L91.5072 30.1375ZM96.7552 32.58V28.6817H96.1208V27.8292H96.7552V27.3311C96.7552 26.8141 96.8866 26.4436 97.1494 26.2201C97.412 25.9902 97.7773 25.8753 98.2451 25.8753H98.6872V26.7373H98.4085C98.1778 26.7373 98.0145 26.7852 97.9182 26.8811C97.8221 26.9705 97.7741 27.1236 97.7741 27.3408V27.8292H98.793V28.6817H97.7741V32.58H96.7552ZM99.9395 32.58V27.8292H100.92L100.949 28.6338C101.109 28.3464 101.327 28.1229 101.602 27.9633C101.884 27.7973 102.214 27.7143 102.592 27.7143V28.7774H102.314C101.859 28.7774 101.519 28.8955 101.295 29.1319C101.071 29.3618 100.958 29.7162 100.958 30.1951V32.58H99.9395ZM104.193 26.996C104.007 26.996 103.847 26.9322 103.713 26.8044C103.584 26.6703 103.52 26.5075 103.52 26.316C103.52 26.1307 103.584 25.9744 103.713 25.8466C103.847 25.7188 104.007 25.6549 104.193 25.6549C104.385 25.6549 104.545 25.7188 104.674 25.8466C104.808 25.9744 104.875 26.1307 104.875 26.316C104.875 26.5075 104.808 26.6703 104.674 26.8044C104.545 26.9322 104.385 26.996 104.193 26.996ZM103.684 32.58V27.8292H104.702V32.58H103.684ZM106.148 32.58V27.8292H107.128L107.148 28.5284C107.308 28.2667 107.529 28.0656 107.811 27.9251C108.099 27.7845 108.404 27.7143 108.724 27.7143C109.282 27.7143 109.733 27.8899 110.079 28.2412C110.425 28.586 110.598 29.1032 110.598 29.7928V32.58H109.579V29.9174C109.579 29.4895 109.483 29.1606 109.291 28.9307C109.099 28.6946 108.81 28.5763 108.426 28.5763C108.048 28.5763 107.744 28.7072 107.513 28.9691C107.282 29.2245 107.167 29.5789 107.167 30.0323V32.58H106.148ZM113.198 32.58L111.401 27.8292H112.478L113.804 31.6414L115.14 27.8292H116.197L114.4 32.58H113.198ZM119.129 32.6949C118.661 32.6949 118.248 32.5895 117.889 32.3788C117.53 32.1682 117.248 31.8744 117.043 31.4976C116.845 31.121 116.745 30.69 116.745 30.2046C116.745 29.7002 116.845 29.2629 117.043 28.8924C117.242 28.5221 117.521 28.2347 117.88 28.0304C118.245 27.8197 118.664 27.7143 119.139 27.7143C119.6 27.7143 120.004 27.8165 120.35 28.0209C120.696 28.2189 120.965 28.4902 121.157 28.835C121.356 29.1798 121.455 29.5724 121.455 30.0131C121.455 30.1025 121.452 30.1791 121.446 30.243C121.446 30.3069 121.439 30.3834 121.426 30.4728H117.764C117.784 30.741 117.851 30.9804 117.966 31.1912C118.081 31.3956 118.238 31.5584 118.437 31.6796C118.636 31.7945 118.863 31.8521 119.119 31.8521C119.395 31.8521 119.629 31.7914 119.821 31.6701C120.02 31.5423 120.167 31.3635 120.263 31.1337H121.321C121.237 31.4211 121.096 31.6828 120.898 31.9191C120.705 32.1553 120.462 32.3438 120.167 32.4843C119.872 32.6247 119.526 32.6949 119.129 32.6949ZM117.774 29.7544H120.417C120.404 29.3841 120.273 29.0935 120.023 28.8829C119.773 28.6657 119.469 28.5573 119.11 28.5573C118.789 28.5573 118.498 28.6562 118.235 28.8542C117.972 29.052 117.819 29.3523 117.774 29.7544ZM124.488 32.6949C124.116 32.6949 123.777 32.631 123.469 32.5035C123.162 32.3693 122.912 32.1808 122.72 31.9383C122.527 31.6956 122.415 31.4114 122.383 31.0858H123.411C123.456 31.3156 123.575 31.504 123.767 31.6509C123.959 31.7977 124.2 31.8713 124.488 31.8713C124.744 31.8713 124.953 31.8169 125.113 31.7085C125.273 31.5934 125.353 31.4434 125.353 31.2583C125.353 31.0987 125.299 30.974 125.19 30.8846C125.087 30.7952 124.953 30.725 124.786 30.674C124.626 30.6229 124.45 30.5782 124.257 30.5399C123.963 30.4696 123.684 30.3834 123.421 30.2813C123.165 30.1791 122.957 30.0386 122.796 29.8598C122.636 29.681 122.556 29.4417 122.556 29.1414C122.556 28.8477 122.633 28.5955 122.787 28.3848C122.947 28.1676 123.165 28.0017 123.44 27.8867C123.716 27.7718 124.027 27.7143 124.373 27.7143C124.892 27.7143 125.324 27.8452 125.67 28.1071C126.016 28.3625 126.208 28.7393 126.247 29.2373H125.267C125.241 29.0138 125.145 28.8413 124.978 28.7201C124.818 28.5986 124.61 28.5381 124.354 28.5381C124.116 28.5381 123.924 28.586 123.777 28.6817C123.629 28.7711 123.556 28.9084 123.556 29.0935C123.556 29.2213 123.607 29.3299 123.709 29.4193C123.812 29.5022 123.943 29.5724 124.104 29.63C124.27 29.681 124.443 29.7289 124.623 29.7736C124.949 29.8438 125.241 29.93 125.497 30.0323C125.754 30.1344 125.959 30.278 126.112 30.4633C126.266 30.6485 126.346 30.9038 126.353 31.2294C126.353 31.5231 126.269 31.7819 126.103 32.0054C125.943 32.2224 125.722 32.3917 125.44 32.5129C125.164 32.6342 124.847 32.6949 124.488 32.6949ZM129.319 32.58C128.845 32.58 128.48 32.4651 128.223 32.2352C127.967 32.0054 127.839 31.6286 127.839 31.105V28.6817H127.118V27.8292H127.839V26.68H128.858V27.8292H130.069V28.6817H128.858V31.105C128.858 31.3477 128.912 31.5105 129.021 31.5934C129.13 31.6764 129.3 31.718 129.531 31.718H130.069V32.58H129.319Z" fill="#4D4F52"/>
</g>
<defs>
<clipPath id="clip0_4612_2303">
<rect width="132" height="36" fill="white"/>
</clipPath>
</defs>
</svg>
